# xmcd CD database file
# Copyright (C) 1993-1998 Ti Kan
#
# Track frame offsets:
#	183
#	15733
#	39033
#	51183
#	70983
#	96033
#	105183
#	121608
#	137283
#	149808
#	171258
#	187833
#	213558
#	231933
#	242658
#	258145
#	273258
#	285708
#
# Disc length: 4109 seconds
#
# Revision: 1
# Processed by: cddbd v1.4b41PL1 Copyright (c) Steve Scherf et al.
# Submitted via: CDValet v3.31 - Copyright (c) 1997 Greg Leichner
#
DISCID=f3100b12
DTITLE=Misc - Red White and Blues
DYEAR=1900
DGENRE=
TTITLE0=Windows of my eyes (Cuby and Blizzards)
TTITLE1=Wang dang doodle (Livin´Blues)
TTITLE2=Ridin´on the L+N (Bintangs)
TTITLE3=Down here (Rob Hoeke)
TTITLE4=The sun is shining (Oscar Benton Blues Band)
TTITLE5=Wishful thinking (Indiscrimination)
TTITLE6=Sometimes (Cuby and Blizzards)
TTITLE7=World of birds (Q ´65)
TTITLE8=I can´t quit you (Oscar Benton Blues Band)
TTITLE9=When the sun goes down (Livin´Blues)
TTITLE10=Your one and only man (Blues Dimension)
TTITLE11=Worried dreams (John the Revelator)
TTITLE12=Hound is on the run (Bintangs)
TTITLE13=Baby, I need your loving (Blues Dimension)
TTITLE14=It won´be long (Rob Hoeke)
TTITLE15=The life I öive (Q´65)
TTITLE16=Sonny boy (Livin´ Blues)
TTITLE17=My circular jail (Rob Hoeke)
EXTD=
EXTT0=
EXTT1=
EXTT2=
EXTT3=
EXTT4=
EXTT5=
EXTT6=
EXTT7=
EXTT8=
EXTT9=
EXTT10=
EXTT11=
EXTT12=
EXTT13=
EXTT14=
EXTT15=
EXTT16=
EXTT17=
PLAYORDER=
